<?xml version="1.0" encoding="UTF-8"?>
<svg width="328px" height="62px" viewBox="0 0 328 62" version="1.1" xmlns="http://www.w3.org/2000/svg" xmlns:xlink="http://www.w3.org/1999/xlink">
    <!-- Generator: Sketch 47.1 (45422) - http://www.bohemiancoding.com/sketch -->
    <title>Page 1</title>
    <desc>Created with Sketch.</desc>
    <defs></defs>
    <g id="Page-1" stroke="none" stroke-width="1" fill="none" fill-rule="evenodd">
        <g fill="#000000">
            <path d="M28.6041,19.8297 L28.6041,14.3407 C28.6041,11.7837 28.6041,9.2267 28.4541,8.8507 C28.2281,8.3997 27.1001,5.9937 26.7241,6.1437 C26.5741,6.2197 26.7991,17.7997 26.7991,26.3717 C26.7991,29.8307 26.7991,32.8387 26.6491,34.3427 C25.4461,48.9307 23.4161,52.6147 16.9491,55.9987 C15.5201,56.7507 25.3711,54.6447 27.3261,43.2907 C28.6791,35.6207 28.4541,25.6947 28.6041,19.8297 L28.6041,19.8297 Z M7.4741,43.2157 C7.3241,43.3657 9.0531,49.2307 12.5121,49.9827 C10.3321,49.4567 9.3541,46.2987 8.7521,44.4187 C8.6021,43.9677 7.5491,43.1407 7.4741,43.2157 L7.4741,43.2157 Z M20.1071,12.2347 C20.3331,12.0847 20.0321,10.2047 19.8061,10.1297 C18.2271,9.9037 16.1971,9.9787 14.6181,9.9787 C11.9111,9.9037 5.9701,9.3027 5.8951,9.6787 C5.8201,9.9787 7.9251,12.0097 8.1511,12.0847 C8.6021,12.1597 19.8811,12.4607 20.1071,12.2347 L20.1071,12.2347 Z M12.6631,55.9237 C24.3931,56.1487 25.5961,39.9067 25.5961,29.3797 C25.5961,27.4247 25.5211,25.6197 25.5211,24.1907 C25.4461,20.0557 25.5961,15.8447 25.5961,11.6337 C25.5961,9.4527 25.5961,7.1967 25.4461,5.0167 C25.4461,4.4897 25.2201,4.1887 24.9951,3.8887 C24.7691,3.5877 15.9711,3.2867 10.2561,3.2867 C7.5491,3.2867 5.5191,3.3617 5.3691,3.5127 C4.9171,4.0387 5.7451,8.7007 5.8201,8.7757 C6.1211,8.9267 7.3991,8.9267 8.8281,8.9267 C11.9111,9.0017 14.9941,9.1517 18.0771,9.3777 C20.1071,9.4527 21.2351,8.8507 21.4601,11.1067 C21.5361,11.9337 21.6111,13.1377 21.6111,14.6417 C21.6111,22.1607 20.4831,36.7487 19.8811,41.0347 C19.3551,44.5687 16.9491,50.8857 12.7381,50.8857 C11.9861,50.8857 11.1591,50.6597 10.3321,50.2087 C8.0761,49.0057 7.0231,45.9227 6.3461,43.6667 C6.0451,42.6137 6.1961,42.0127 5.7451,41.7867 C5.5191,41.6367 1.9101,41.1847 1.3831,41.7867 C1.2331,42.0127 1.1581,42.3127 1.1581,42.7647 C1.1581,44.7947 1.6091,46.6747 2.3611,48.4787 C4.1661,53.0657 6.8731,55.4727 11.7601,55.8487 L12.6631,55.9237 Z M28.3031,43.9677 C27.4761,48.5547 25.4461,53.3667 21.0841,55.6227 C19.0541,56.7507 16.8741,57.1267 14.6181,57.1267 C12.4371,57.1267 10.2561,56.7507 8.2261,56.2997 C3.6391,55.1717 1.6841,51.0357 0.6311,46.8247 C0.3311,45.3207 -0.1209,41.1847 0.0301,40.6587 C0.1051,40.4337 1.0071,40.3577 2.2101,40.3577 C4.0151,40.3577 6.2711,40.5087 6.8731,40.6587 C7.8501,40.8847 8.5271,42.4637 9.1281,43.2907 C10.3321,44.8697 10.4071,46.9757 11.9861,48.4037 C15.1441,51.3367 17.4001,46.2987 18.1521,43.6667 C19.7311,38.3277 19.4301,32.7637 19.8061,27.2737 C20.0321,24.5667 20.3331,21.9347 20.4081,19.2277 C20.4831,18.3257 20.4831,13.8897 20.2571,13.6637 C19.3551,13.0617 11.0831,13.1377 9.2791,13.1377 C8.8281,13.0617 8.0001,13.2127 7.6251,12.9867 C7.0231,12.5357 4.9931,10.2797 4.7671,9.9787 C4.4661,9.5277 3.8651,2.4597 4.0151,2.3087 C4.2411,2.1587 5.5941,2.0837 7.4741,2.0837 C13.3391,2.0837 24.5431,2.6097 25.3711,2.7607 C25.7471,2.9107 26.1981,3.0607 26.4231,3.3617 C27.2501,4.4147 28.0781,6.1437 28.9051,7.3477 C29.5821,8.2497 29.5061,11.7837 29.6571,12.9117 C29.7321,13.9647 29.7321,14.9417 29.7321,15.9197 C29.7321,17.2727 29.7321,18.6267 29.6571,19.9797 C29.5061,25.9957 29.8071,36.1467 28.3031,43.9677 L28.3031,43.9677 Z" id="Fill-1"></path>
            <path d="M60.797,54.7804 C60.647,54.4794 59.895,53.7274 59.669,53.9534 C59.519,54.0284 59.443,57.2614 59.669,57.7134 C59.819,57.9384 60.571,59.4424 60.947,59.2174 C61.098,59.1414 60.872,54.9304 60.797,54.7804 M54.405,10.2644 C54.556,10.8664 55.684,11.9194 55.834,11.9194 C55.985,11.9194 56.285,8.5354 56.21,8.3094 C56.21,8.1594 55.007,6.5804 54.857,6.6554 C54.781,6.7304 54.33,10.0394 54.405,10.2644 M48.991,32.5224 C48.991,32.6734 50.119,33.8014 50.57,34.1014 C50.57,33.2744 50.796,31.3194 50.721,31.0184 C50.721,30.7184 49.443,28.9884 49.142,29.2144 C48.991,29.3644 48.841,32.2214 48.991,32.5224 M45.908,33.8014 C45.833,34.0264 47.412,35.2294 47.638,35.3044 C48.014,35.4554 50.044,35.3044 50.119,35.0794 C50.27,34.8534 49.217,33.4254 48.691,33.4254 C48.315,33.3494 45.984,33.5754 45.908,33.8014 M46.811,39.2904 L46.811,36.2824 C46.66,35.6054 45.833,34.9284 45.532,34.6284 C45.156,34.7784 45.908,51.2464 45.908,51.2464 L47.187,51.4714 C47.412,49.4414 47.036,44.9294 46.886,42.9744 C46.811,42.3734 46.811,40.7944 46.811,39.2904 M53.353,10.7164 C53.127,10.6404 43.427,11.5434 43.126,11.8434 C43.126,11.9194 45.156,13.3474 45.608,13.4984 C46.435,13.6484 54.781,12.7464 55.007,12.5204 C55.157,12.3704 53.729,10.9414 53.353,10.7164 M44.48,14.0994 C44.028,13.5734 42.525,12.5204 42.449,12.6714 C42.224,12.8214 44.028,27.8604 44.254,28.0864 C44.48,28.3114 45.307,28.1614 46.059,28.0864 C45.984,25.0784 44.705,14.4004 44.48,14.0994 M58.842,58.0134 C58.391,57.9384 51.849,57.6374 49.894,57.7134 C48.164,57.7134 44.179,57.6374 41.622,57.6374 C40.344,57.6374 39.442,57.6374 39.366,57.7134 C39.291,57.8634 41.246,59.8934 41.547,59.9684 C42.149,60.1194 59.368,59.8184 59.895,59.6684 C60.045,59.5924 59.068,58.0894 58.842,58.0134 M39.291,56.9614 C39.517,57.0364 40.72,57.0364 41.998,56.9614 C47.262,56.9614 57.338,57.3374 58.541,57.3374 C58.767,57.3374 58.917,53.5024 58.24,53.5024 C56.812,53.5774 46.284,52.5994 45.382,52.2994 C44.931,52.1484 45.081,51.2464 45.006,50.8704 C44.555,46.6594 44.931,40.6434 44.555,36.4324 C44.48,35.8314 44.104,33.1244 45.081,32.8984 C45.984,32.7484 48.014,33.3494 48.089,31.9964 C48.089,31.0934 48.315,28.8384 48.089,28.8384 C47.111,28.7624 44.555,29.6654 43.878,28.9134 C43.352,28.2364 43.126,25.8304 43.051,24.9274 C42.976,22.2964 41.096,12.8964 41.472,11.9194 C41.773,10.9414 45.307,10.7914 46.585,10.6404 C48.465,10.4154 53.202,10.0394 53.428,9.8134 C53.578,9.6634 54.105,6.9564 53.879,6.7304 C53.653,6.5804 46.359,7.4074 43.728,7.7834 C40.795,8.1594 35.531,8.3094 35.155,9.0614 C34.93,9.6634 35.983,20.1154 36.735,25.6044 C37.637,31.6204 37.637,37.4104 38.163,43.5764 C38.389,46.5844 38.614,50.1184 38.84,53.2014 C38.99,55.0064 39.066,56.7354 39.291,56.9614 M57.112,60.6454 C55.533,60.6454 53.879,60.5704 53.202,60.5704 C50.42,60.4954 49.367,60.6454 47.487,60.6454 C46.66,60.6454 44.856,60.7964 43.276,60.7964 C41.998,60.7964 40.87,60.7204 40.344,60.3444 C38.013,58.6154 38.088,56.2094 37.862,53.5024 C37.486,48.6894 36.96,43.8774 36.659,38.9894 C35.983,29.2894 34.704,19.8144 34.103,10.1144 C34.027,8.9114 34.027,8.4604 34.403,8.1594 C35.005,7.7084 35.983,7.7834 37.787,7.5574 C39.667,7.2574 54.481,5.6774 54.481,5.6774 C54.706,5.6774 54.932,5.6774 55.082,5.7534 C55.834,6.3544 56.436,7.4824 56.812,8.0094 C57.037,8.3094 56.736,11.9944 56.586,12.9714 C56.436,13.6484 45.608,14.0994 45.532,14.3254 C45.382,14.7014 46.961,25.2284 47.036,26.8834 C47.036,27.1834 47.036,28.0104 47.187,28.0104 C47.412,28.0864 48.841,28.0864 49.142,28.0864 C49.518,28.1614 49.894,28.4624 50.119,28.7624 C50.57,29.2894 51.322,30.5674 51.473,31.0184 C51.548,31.3944 51.623,35.1544 51.247,35.5304 C50.946,35.9064 47.863,35.9814 47.563,36.2074 C47.337,36.4324 47.563,37.3354 47.563,38.0114 C47.638,41.8464 48.315,47.2604 48.39,51.0954 C48.465,52.1484 57.112,52.2994 58.316,52.4494 C59.519,52.6754 61.023,53.5774 61.248,53.9534 C61.549,54.3294 61.474,57.2614 61.699,59.4424 C61.775,60.4954 59.443,60.6454 57.112,60.6454" id="Fill-3"></path>
            <path d="M97.1104,39.5309 L97.1104,27.3489 C97.1104,19.1529 97.1104,9.9789 96.9604,9.7539 C96.6594,9.0769 94.7044,6.6709 94.5534,6.7459 L94.5534,9.7539 C94.5534,19.5289 94.7794,49.6819 94.9294,50.2839 C95.0804,50.8099 96.9604,52.5399 97.1854,52.2389 C97.2604,52.1639 97.0354,43.5919 97.1104,39.5309 M94.2534,51.4119 C93.8774,51.3369 88.7634,51.6369 88.6884,51.9379 C88.6134,52.1639 89.2904,53.3669 89.6664,53.5929 C90.1924,53.8179 95.9074,53.6679 96.2084,53.2919 C96.3584,52.9909 94.9294,51.5619 94.2534,51.4119 M76.5824,51.5619 C76.5824,44.6439 76.2814,28.9279 76.1314,28.1009 C76.0554,27.4999 75.3794,26.1459 75.0784,25.6949 C74.7024,24.9429 74.7024,25.3939 74.7024,25.7699 C74.8524,27.6499 74.8524,28.4769 74.8524,30.2819 C74.8524,30.2819 75.2284,52.5399 75.3034,53.6679 C75.3794,54.0439 76.3564,54.8709 76.5064,54.7199 C76.5824,54.6449 76.5824,53.4419 76.5824,51.5619 M87.1094,30.1319 C87.1094,29.3799 87.4104,28.1009 87.1094,27.4999 C86.7334,26.6729 85.8314,24.9429 85.1544,23.5899 C83.9514,21.0329 82.9734,18.5509 81.6954,15.9949 C80.8684,14.2649 77.1084,5.9189 76.9584,5.7679 C76.5064,5.3919 74.7774,4.0389 74.7024,4.1889 C74.6274,4.2639 86.3574,28.4769 87.1094,30.1319 M75.0034,54.7199 C74.7024,54.6449 68.6114,54.9459 68.5364,55.0959 C68.3854,55.3219 69.2884,56.0739 69.2884,56.0739 C70.0404,56.2999 75.8304,56.2239 75.9804,55.6979 C75.9804,55.5479 75.3794,54.8709 75.0034,54.7199 M88.0874,50.7349 C88.4634,50.9609 93.4254,50.5849 93.6514,50.2839 C93.8774,49.9829 93.6514,47.9529 93.5764,46.7499 C93.4254,36.6739 93.5014,12.2349 93.4254,9.9789 C93.4254,9.0769 93.5764,6.2189 93.4254,5.8429 C93.2004,5.3919 89.5154,5.5429 89.2904,5.8429 C88.9144,6.1439 88.6884,19.4539 88.6884,23.5139 C88.6884,25.3189 88.5384,33.4399 88.0114,33.3649 C87.2594,33.2149 79.2144,16.2959 78.3114,14.3409 C76.9584,11.2579 73.4994,3.9639 72.8974,3.5879 C72.5964,3.4369 68.1604,2.9109 67.7094,3.3619 C67.3334,3.6629 67.6334,5.6929 67.5584,8.9259 C67.5584,9.8289 67.4834,11.1819 67.4834,12.9119 C67.4834,24.7929 68.1604,53.8179 68.4614,54.1939 C68.6114,54.3439 73.7994,54.1939 73.9504,54.0439 C74.0254,53.9689 74.0254,52.5399 74.0254,50.3589 C74.0254,42.8399 73.7244,26.2209 73.7244,24.7929 C73.7244,23.8899 73.7244,22.5369 74.2514,22.4619 C74.7774,22.4619 75.1534,22.9879 75.4544,23.5139 C76.3564,25.3939 80.3414,33.5149 82.1464,37.7259 C83.5004,41.1099 87.8614,50.6599 88.0874,50.7349 M98.0884,53.9689 C97.7124,54.4949 89.7414,54.7199 89.3654,54.5699 C88.5384,54.1939 87.9364,53.4419 87.2594,52.3139 C86.0564,50.5099 79.6654,35.7709 77.4094,30.5079 C77.3344,34.8689 77.7104,45.1709 77.7104,51.4119 C77.7104,54.3439 77.6344,56.2999 77.4094,56.5249 C77.0334,56.9009 73.7244,57.0519 71.3184,57.0519 C70.0404,57.0519 69.0624,56.9759 68.8374,56.9009 C68.0854,56.5999 67.3334,55.6229 67.1074,54.7199 C67.0324,54.3439 66.2054,32.1619 66.1304,26.2969 L66.1304,21.1829 C66.1304,13.5889 66.2054,2.3849 66.5814,2.1589 C66.8814,1.9329 67.9344,1.8579 69.2134,1.8579 C70.4914,1.8579 71.9954,1.9329 73.0484,2.0089 C73.9504,2.0839 77.1084,4.4899 77.5594,5.2419 C78.9134,7.3469 85.8314,22.9879 87.2594,25.3189 C87.4104,19.5289 87.4854,5.3169 88.0874,4.7159 C88.2374,4.5649 89.6664,4.4149 91.1704,4.4149 C92.4484,4.4149 93.7264,4.5649 94.1774,4.8659 C94.5534,5.0159 97.9374,7.8739 98.0884,10.2049 C98.2384,12.3099 98.3134,26.2209 98.3884,31.9359 C98.4644,34.9439 98.4644,37.9519 98.4644,41.0349 C98.4644,43.2909 98.4644,45.5469 98.3884,47.8779 C98.3884,48.9299 98.3134,53.5929 98.0884,53.9689" id="Fill-5"></path>
            <path d="M150.2008,4.2946 C149.6748,3.2416 148.1708,1.2116 148.0958,1.5876 C148.0958,1.8886 147.9448,5.5726 148.0198,6.0236 C148.0958,6.1746 149.8248,9.3326 149.9748,9.1066 C150.1258,8.8816 150.4268,4.6706 150.2008,4.2946 L150.2008,4.2946 Z M141.7038,21.5896 C141.5538,20.9126 139.5978,19.5596 139.4478,19.7096 C139.2978,19.7846 139.2218,23.0186 139.3728,23.3186 C139.4478,23.4696 141.4778,25.3496 141.5538,25.2736 C141.7788,25.1986 141.7788,21.9656 141.7038,21.5896 L141.7038,21.5896 Z M147.4188,6.4756 C147.1178,6.2496 136.3648,7.0766 136.2898,7.2276 C136.2148,7.4526 138.5458,9.4826 138.9218,9.4826 C139.2978,9.5586 141.7788,9.5586 144.1848,9.5586 C146.5918,9.5586 148.9228,9.5586 148.9228,9.3326 C148.9978,8.7316 147.6438,6.6256 147.4188,6.4756 L147.4188,6.4756 Z M138.7708,23.9956 C138.5458,23.8456 136.2898,24.0706 136.0638,24.3716 C135.9888,24.5226 137.9438,27.0786 138.8468,27.0036 C139.5228,26.9286 141.1778,26.6276 141.2528,26.4776 C141.5538,25.9506 139.8988,25.0486 138.7708,23.9956 L138.7708,23.9956 Z M138.4708,10.1596 C138.3948,9.9346 136.2148,8.0546 135.9888,8.2796 C135.8388,8.3556 135.8388,11.8896 135.8388,14.5966 L135.8388,17.9046 C136.1388,18.5066 138.0948,18.3566 138.3198,18.2056 C138.4708,18.0556 138.4708,13.8446 138.4708,13.0176 C138.5458,12.1146 138.5458,10.3106 138.4708,10.1596 L138.4708,10.1596 Z M135.3878,28.8086 C135.0118,31.4406 134.9358,34.2226 134.9358,37.0046 L134.9358,43.0206 C134.9358,45.3516 134.8608,47.6076 134.8608,49.9386 C134.8608,50.9156 134.5598,51.7426 135.2368,52.5696 C135.3878,52.6456 136.1388,53.9236 136.3648,53.6976 C136.9668,52.8706 136.6658,49.6376 136.7408,48.7346 C136.9668,45.2756 136.9668,41.8926 137.1918,38.4336 C137.3428,36.1776 137.1168,33.9216 137.1918,31.5906 C137.1918,30.3126 137.4178,28.1316 137.4178,27.6056 C137.4928,27.2296 136.5148,25.8756 135.6878,25.0486 C135.4628,26.1766 135.5378,27.3046 135.4628,28.4326 L135.3878,28.8086 Z M133.3568,51.9686 C132.9058,51.8936 130.0488,51.9686 129.8978,52.1186 C129.5968,52.4196 129.8228,52.6456 130.0488,53.0216 C130.2738,53.3976 130.8008,54.2246 131.1768,54.2246 C131.7028,54.1496 135.1618,54.2246 135.3118,54.0736 C135.4628,53.9236 133.9588,51.9686 133.3568,51.9686 L133.3568,51.9686 Z M147.3438,1.4376 C147.2678,1.1366 146.8168,1.1366 146.2908,1.2116 C144.4108,1.2866 142.6058,1.3616 140.7258,1.4376 C136.9668,1.5126 127.8678,1.8886 127.4918,2.3396 C126.9658,3.0166 127.3418,4.2946 127.2658,6.7006 C127.1908,10.3856 127.3418,13.9946 127.4918,17.6796 C127.5668,20.3116 128.2438,44.6746 128.9208,50.3896 C128.9958,51.0656 129.2218,51.3666 129.5218,51.2916 C131.4018,50.9906 133.4318,51.1416 133.7328,50.8406 C133.8838,50.6146 134.0338,49.4866 134.0338,48.6596 C134.1088,45.9526 134.1838,43.8476 134.1838,41.7416 C134.1838,40.7646 134.1838,39.8616 134.1088,38.8846 C134.1088,37.9826 134.0338,37.0796 134.0338,36.1776 C134.0338,32.9436 134.2598,29.6356 134.4848,26.4016 C134.5598,25.6496 134.4098,23.9956 135.1618,23.5446 C136.0638,23.0186 138.5458,23.3186 138.6958,23.0936 C138.8468,22.7926 138.6208,20.8376 138.6208,20.2356 C138.6208,19.7096 138.6208,19.1076 138.4708,19.0326 C138.3198,18.9576 137.3428,18.9576 136.5148,19.0326 C135.9138,19.1076 135.5378,18.9576 135.1618,18.5816 C134.9358,18.2806 134.7108,8.4306 134.7858,7.0016 C134.8608,6.0996 137.4928,6.0996 138.6208,6.0236 C141.1778,5.8736 146.5158,5.8736 147.3438,5.4976 C147.5688,5.3476 147.4188,4.5206 147.4938,3.6926 C147.4938,3.2416 147.4938,1.8136 147.3438,1.4376 L147.3438,1.4376 Z M150.8028,4.3696 C151.0278,5.4976 150.8028,7.1516 150.8778,8.3556 C150.8778,9.4076 150.3508,9.9346 150.0508,10.0846 C149.8248,10.1596 149.2988,10.3106 148.3208,10.3106 C146.8168,10.3106 142.1548,10.1596 139.9738,10.2346 C139.2978,10.2346 139.3728,10.9116 139.3728,11.5136 C139.2218,13.0926 139.0718,14.8216 139.2218,16.4006 C139.2978,17.4536 139.2978,18.2806 139.3728,18.4316 C139.5228,18.5816 140.0498,19.1076 140.8768,19.7846 C141.6288,20.3866 142.3048,20.8376 142.3808,21.8156 C142.4558,23.0936 142.3808,24.3716 142.3048,25.5746 C142.3048,28.7326 138.3948,26.6276 138.0948,29.2596 C138.0188,30.1616 137.9438,31.0646 137.9438,31.9666 C137.9438,34.0716 138.1698,36.1776 138.0948,38.7336 C138.0948,41.8926 137.7188,44.8996 137.7188,48.1336 C137.7188,48.7346 137.7938,49.7126 137.7938,50.6146 C137.7938,52.7206 137.4928,54.9006 135.3878,54.9766 C133.9588,54.9766 132.6798,55.1266 131.3268,55.1266 C129.8978,55.1266 129.2218,53.3976 128.5448,52.3446 C127.7928,50.9906 127.8678,48.4346 127.7928,47.1556 C127.6418,44.8246 127.4168,42.1926 127.2658,39.9376 C127.1158,35.9516 127.1158,32.5676 126.8898,28.5076 C126.4388,19.9356 125.6868,1.4376 125.9128,0.9856 C126.2138,0.5346 132.2288,0.4596 134.7108,0.3846 C134.7108,0.3846 146.2158,-0.0664 147.1178,0.0086 C148.3208,0.1586 150.5768,3.0916 150.8028,4.3696 L150.8028,4.3696 Z" id="Fill-7"></path>
            <path d="M185.6031,48.5768 C185.5671,48.0458 183.7941,45.5028 183.4831,45.6308 C183.3281,45.6948 183.1651,46.8888 183.0651,48.2388 C182.9261,50.1138 182.9111,52.3748 183.0341,52.7608 C183.2901,53.3828 184.4841,55.5818 184.7951,55.4538 C185.1061,55.3258 185.6811,49.5628 185.6031,48.5768 M165.3921,8.7098 C165.3461,10.3658 165.3101,11.8708 165.3971,13.7618 C165.4571,16.0288 165.3661,18.2838 165.3921,20.9998 C165.3511,22.5798 165.8571,38.2248 166.2621,41.9498 C166.2981,42.4798 166.8341,42.3688 167.1341,42.3908 C167.4341,42.4128 167.8091,42.4408 167.8201,42.2908 C167.8361,42.0658 167.7201,41.6048 167.7361,41.3798 C167.1561,34.9278 167.2551,26.4148 167.2801,19.9328 C167.3041,16.5418 167.4021,13.1558 167.3561,9.6838 C167.3361,8.9288 167.4631,7.2038 167.2991,6.3628 C167.1881,5.8258 165.7951,3.2358 165.5481,3.5188 C165.3871,3.6578 165.3581,7.1238 165.3921,8.7098 M182.0621,53.6688 C181.3921,53.5448 163.6141,52.3098 158.7501,51.8018 C158.4561,51.7038 158.3641,51.9238 158.4221,52.1548 C158.7481,52.8568 159.0311,53.1038 159.5121,53.7428 L159.8591,54.1448 C160.9711,55.4328 161.2241,55.0748 163.0931,55.2878 C165.4171,55.4588 183.3401,56.7798 183.5931,56.4208 C183.9261,55.9928 182.5061,53.7768 182.0621,53.6688 M158.6941,50.5148 C161.3941,50.7148 168.8821,51.4168 170.6871,51.4738 C173.3121,51.6678 176.0111,51.8668 178.6361,52.0598 C179.2371,52.1038 180.9501,52.3808 181.4331,51.9638 C181.6691,51.8308 181.8321,50.6368 181.9321,49.2858 C182.0591,47.5618 182.0521,45.6008 181.8441,45.3588 C181.3581,44.7958 169.4451,43.7668 166.3651,43.6158 C165.6151,43.5608 165.3951,43.4698 165.3481,43.0888 C165.2151,42.8528 164.7061,28.2638 164.5631,25.0858 C164.4361,21.6838 164.3401,2.5248 164.2701,2.4448 C164.2701,2.4448 158.9741,1.6778 158.5711,2.0248 C158.3291,2.2338 158.2731,8.1108 158.1031,12.4708 C157.8811,18.5618 157.9361,24.9748 157.8641,31.0768 C157.7931,34.0878 157.8771,37.0348 157.8871,39.9758 C157.8741,43.2168 157.9441,50.4598 158.6941,50.5148 M185.3271,57.4528 C185.2351,57.6728 180.5751,57.4798 178.5391,57.4808 C177.4831,57.4788 176.4281,57.4768 175.3781,57.3988 C172.8281,57.2118 170.3701,56.8048 167.8151,56.6918 C166.9841,56.7058 165.9351,56.6278 164.7351,56.5398 C163.5351,56.4518 162.2601,56.3578 161.1411,56.1998 C160.3911,56.1448 159.8351,55.5008 159.4131,55.0928 C158.6431,54.2818 157.8151,53.2408 156.9761,52.3488 C156.6231,52.0218 156.7721,49.9968 156.6831,49.1608 C156.5591,44.7028 156.7341,40.2678 156.6911,35.7408 C156.6071,27.6668 156.6401,20.0538 156.8561,12.0018 C156.9241,10.0468 157.1371,1.0138 157.2981,0.8758 C157.5341,0.7428 158.2151,0.7168 158.8151,0.7608 C160.7651,0.9048 162.4841,1.1068 163.5341,1.1838 L164.2081,1.2338 C164.8091,1.2778 165.2261,1.7608 165.7921,2.2548 C166.7071,3.1518 167.2241,4.3208 167.9601,5.5818 C168.3601,6.2898 168.3111,6.9648 168.2721,7.4898 C168.1241,11.5498 168.2481,16.0078 168.1581,20.2988 C168.0961,24.2148 168.1891,28.0678 168.1321,31.9088 C168.1881,33.1948 168.5641,42.4208 169.0831,42.5348 C169.9031,42.6698 175.3611,43.2988 178.1301,43.5778 C178.9501,43.7138 180.0801,43.7218 181.1291,43.7988 C181.9551,43.8598 182.7051,43.9148 183.2931,44.1088 C183.8131,44.2228 186.0361,46.7988 186.6621,47.5238 C187.0731,48.0818 185.9881,56.6728 185.3271,57.4528" id="Fill-9"></path>
            <path d="M226.5924,52.8722 C224.9054,52.9722 222.3114,53.9352 222.3204,54.0822 C222.3504,54.5962 223.3474,55.2732 223.9434,55.3852 C224.1634,55.3722 228.7564,54.5852 228.8164,54.3602 C228.7904,53.9202 227.2534,52.8322 226.5924,52.8722 L226.5924,52.8722 Z M230.1504,53.2502 C230.0454,51.4892 223.9014,34.7682 221.5444,26.0722 C220.3254,21.6522 219.1074,17.2322 217.5984,12.9032 C217.2444,11.8932 216.0384,7.6932 215.7834,7.1192 C215.5324,6.6192 213.7014,4.2972 213.4074,4.3142 C213.3344,4.3192 213.3484,4.5392 213.3564,4.6852 C213.3734,4.9792 213.4784,5.4892 213.5644,5.7052 C216.5164,14.5142 227.2354,51.2882 227.5594,51.7842 C227.8054,52.2112 229.6454,53.4282 230.0854,53.4012 L230.1584,53.3972 C230.1584,53.3972 230.1544,53.3242 230.1504,53.2502 L230.1504,53.2502 Z M213.5834,33.3922 C213.5834,33.3922 211.2574,23.9562 210.4024,21.9452 C209.7344,25.5932 208.3984,30.3852 207.1474,34.1412 C208.8354,34.0402 213.5834,33.3922 213.5834,33.3922 L213.5834,33.3922 Z M206.9214,30.3252 C207.5984,26.8242 209.7114,21.4702 209.5854,19.3422 C209.5504,18.7552 208.4574,16.4632 208.5304,16.4592 C208.5304,16.4592 204.6524,33.0372 204.7214,34.2102 C204.7304,34.3572 205.1014,34.4092 205.3954,34.3922 C205.6144,34.3792 205.8354,34.3662 205.9004,34.2142 C206.0334,33.9862 206.6934,31.4432 206.9214,30.3252 L206.9214,30.3252 Z M208.3784,13.8912 C209.6264,13.8172 214.3244,29.7392 215.5044,33.4982 C215.5084,33.5722 215.5084,33.5722 215.5134,33.6452 C215.6134,35.3332 209.1424,35.4952 208.0414,35.5602 C206.3544,35.6612 203.3714,36.2792 203.2714,34.5912 C203.2014,33.4172 207.6114,14.5992 208.1624,13.9772 C208.2324,13.8992 208.3054,13.8952 208.3784,13.8912 L208.3784,13.8912 Z M217.9704,46.5342 C217.9444,46.0942 217.0974,44.2292 217.0194,44.1602 C216.8674,44.0962 215.9144,44.1522 214.5934,44.2302 C210.7784,44.4562 203.7454,45.0932 203.7164,45.8312 C203.7854,47.0062 205.9834,48.0542 206.8634,48.0012 C209.7254,47.8322 217.7674,46.8402 217.9744,46.6072 L217.9704,46.5342 Z M204.3434,48.9612 C204.3254,48.6672 203.1594,46.3802 202.6464,46.4102 C202.7924,46.4022 199.3854,54.7772 199.4984,56.6852 C199.5254,57.1252 200.7344,58.8952 200.8034,58.8172 C201.0194,58.7312 202.7864,53.7662 203.5324,51.4392 C203.8994,50.1652 204.3734,49.4752 204.3434,48.9612 L204.3434,48.9612 Z M222.4054,53.0462 C223.8734,52.9592 226.5494,52.1382 226.5314,51.8452 C226.4754,50.8912 223.3514,41.6502 221.8174,36.8802 C222.0844,37.6752 222.3524,38.4692 222.6204,39.2632 C220.1444,32.2672 218.1004,25.0972 216.0644,18.0752 C215.2304,15.1792 211.8934,3.5942 211.5174,3.4692 C211.4444,3.4742 211.2974,3.4822 211.0034,3.4992 C209.2424,3.6042 203.9064,4.2882 203.6264,4.5252 C203.2084,4.9182 202.5364,9.7452 202.1794,11.1652 C200.7354,16.6262 199.9644,22.2682 198.6754,27.8682 C197.6154,32.3492 193.9464,56.2042 194.0034,57.1582 C194.0124,57.3052 194.6724,57.2662 195.4064,57.2222 C198.9284,57.0142 198.1864,56.9102 199.1434,54.4232 C199.8714,51.8032 201.0184,45.0342 202.4034,44.8052 C206.7804,44.1032 211.4504,43.3852 216.0004,43.1162 C216.3664,43.0942 216.6604,43.0772 217.0284,43.0552 C219.6784,43.0452 220.1734,52.6632 222.0344,52.9952 C222.1124,53.0632 222.2584,53.0552 222.4054,53.0462 L222.4054,53.0462 Z M199.2704,59.0552 C199.2144,58.1012 199.0454,57.7432 197.8714,57.8122 C196.1844,57.9132 193.9954,58.2632 194.0084,58.4832 C194.0344,58.9232 194.9194,60.1962 195.2994,60.3952 C195.5244,60.4552 199.2144,59.3532 199.2834,59.2752 C199.2794,59.2022 199.2754,59.1282 199.2704,59.0552 L199.2704,59.0552 Z M226.5504,55.8932 C225.5284,56.0282 224.8114,56.3652 224.1514,56.4042 C223.3434,56.4522 220.6844,55.0622 220.2034,53.1762 C219.8064,51.4332 219.2614,49.6982 218.5054,48.1222 C218.4194,47.9072 216.9474,47.9202 215.1864,48.0242 C210.4894,48.3022 206.0914,48.6362 205.7634,49.3192 C205.4274,49.8542 202.1844,59.7662 201.2474,60.1162 C199.8754,60.5662 196.4564,61.2842 195.0634,61.3662 C194.1824,61.4182 192.6924,58.6352 192.6614,58.1212 C192.6094,57.2402 193.1054,54.4132 193.1984,53.5232 C194.7094,41.7262 197.0314,29.9532 199.2804,18.1852 C200.0694,14.0882 202.0464,3.9562 202.6084,3.4812 C202.9484,3.0192 207.4634,2.1632 210.2514,1.9972 C212.9674,1.8372 214.3314,3.7442 216.4394,5.7552 C217.5354,6.8682 219.1444,14.1372 219.7764,16.0882 C222.0624,23.6112 231.1984,52.3052 231.2204,53.9232 C231.2894,55.0982 227.2794,55.7772 226.5504,55.8932 L226.5504,55.8932 Z" id="Fill-11"></path>
            <path d="M267.2945,55.8483 C267.0685,55.4723 266.9935,55.3973 266.6925,55.0213 L266.3925,54.5703 C265.3395,54.6453 263.0835,55.3223 262.0305,55.6983 C262.2565,56.0743 262.6325,56.3743 263.0835,56.6753 C263.2335,56.7503 263.6855,56.6753 264.1365,56.6003 C265.1895,56.3743 266.3925,56.2993 267.2945,55.8483 M261.2785,6.2943 C259.3985,10.3553 258.2715,13.2873 256.3915,17.6493 C255.7145,19.3783 252.9325,26.2963 252.9325,26.5973 C252.9325,26.8983 253.6085,28.6273 254.2855,29.0783 C255.7895,24.6423 257.5195,20.3563 259.6995,16.0703 C260.9025,13.7393 262.1815,11.5583 263.2335,8.7013 C263.5345,7.9493 263.7605,7.0463 263.7605,6.7453 C263.7605,6.4453 262.4065,4.2643 262.1815,4.3393 C262.1065,4.4143 261.5795,5.6933 261.2785,6.2943 M249.6985,38.1773 C249.2475,37.3503 248.8715,36.7483 248.1195,36.1473 C247.7435,36.7483 247.5935,36.9743 247.2175,37.6513 L247.0665,37.9523 C246.3905,39.0793 245.7885,40.4333 244.9615,41.8623 C244.8115,42.1623 246.6905,43.8923 246.9915,43.8173 C247.5935,43.7423 248.4955,41.9373 248.8715,41.2603 C249.2475,40.5833 249.7735,40.2073 250.1495,39.3803 C250.3005,39.1553 249.9995,38.5533 249.6985,38.1773 M244.5855,4.2643 C244.4355,4.4903 244.7355,10.4303 244.7355,13.3633 C244.8115,15.1673 244.8115,16.9723 244.8115,18.7773 C244.8865,20.2053 244.5855,22.3113 244.8865,23.8903 C245.2625,23.0633 247.2925,18.9273 247.6685,17.8743 C247.8185,17.2733 247.7435,16.4463 247.5935,15.8443 C247.4425,14.4913 247.2925,13.2123 247.1425,12.0093 C246.9165,10.2803 246.6905,7.1213 246.6155,6.8213 C246.5405,6.3693 244.8115,4.1143 244.5855,4.2643 M246.6155,45.2453 C245.9395,44.1933 245.4125,43.8173 244.2845,43.1403 C244.1345,43.0653 243.9835,43.0653 243.9085,43.6663 L243.8335,45.2453 L243.8335,50.7353 L243.8335,53.8183 C243.9085,54.1943 244.1345,54.9463 244.3595,55.2463 C244.8865,55.8483 245.6385,56.6003 246.1645,56.9763 C246.3155,57.0513 246.4655,56.8263 246.4655,56.5253 C246.5405,55.6983 246.5405,54.7953 246.5405,53.8933 C246.5405,52.0883 246.4655,50.2843 246.4655,48.4793 C246.4655,47.7273 246.5405,46.9003 246.6905,45.9973 C246.6905,45.5463 246.7665,45.3963 246.6155,45.2453 M245.1115,57.5023 C245.1875,57.4273 243.9835,55.9983 243.1565,55.3973 C243.0815,55.3223 239.8485,55.3223 238.9455,55.4723 C238.5695,55.5473 240.1485,57.2773 240.6755,57.5773 C241.0515,57.7283 245.1115,57.6533 245.1115,57.5023 M265.4895,53.7433 C265.5655,53.7433 265.5655,53.6673 265.5655,53.5923 C265.1135,52.6903 264.7375,52.3143 264.3615,51.4873 C260.7525,44.4943 257.4435,37.5003 253.5335,30.5823 C252.5565,28.8533 252.0295,28.0263 252.0295,26.9733 C252.0295,26.2963 252.2555,25.5443 252.7065,24.2663 C253.4585,22.1603 254.3605,20.1303 255.1885,18.1003 C256.9925,13.7393 258.8725,9.5283 260.8275,5.2423 C261.1285,4.4903 261.6545,3.2863 261.3545,2.9863 C261.2785,2.9103 260.1505,2.8353 258.9475,2.8353 C257.8955,2.8353 256.7675,2.9103 256.2405,3.1363 C256.0905,3.2863 252.8565,10.5053 251.1275,13.8893 C250.2255,15.4683 249.1725,17.2733 248.3455,19.0023 C247.8945,20.0553 247.2175,21.6343 246.6155,22.6873 C246.1645,23.4393 244.8865,27.0483 244.4355,27.0483 C243.6835,27.0483 243.8335,22.3863 243.8335,21.6343 C243.9085,19.7543 243.6835,17.7243 243.8335,15.8443 C243.9085,14.4153 243.8335,12.0843 243.8335,10.4303 C243.7585,8.7013 243.9835,3.4373 243.3825,3.3623 C242.1045,3.3623 238.8705,3.5873 238.4945,3.8133 C238.3445,3.9633 238.3445,7.8733 238.3445,9.1523 L238.3445,15.4683 C238.3445,19.9053 238.3445,25.3943 238.4945,27.9513 L238.4945,28.1763 C238.5695,30.4323 238.6455,33.5153 238.6455,36.6733 C238.6455,44.7943 238.4195,53.9683 238.5695,54.2693 C238.7955,54.7203 239.5475,54.6453 240.5245,54.5703 C242.2545,54.4943 243.0815,54.9463 243.0065,52.6153 C242.9315,50.5093 243.0815,48.8553 243.0065,46.9753 C242.8565,43.5913 243.0815,42.6893 245.0365,39.4553 C245.7135,38.2523 247.5935,33.2893 249.1725,35.5453 C250.6015,37.5763 256.6165,46.8253 258.0455,49.3063 C258.8725,50.8853 260.3765,53.0663 261.3545,54.5703 C261.6545,55.0963 264.6625,54.0433 265.4895,53.7433 M264.2115,57.5773 C263.6095,57.6533 263.0835,57.8783 262.4065,57.2773 C261.5045,56.3743 260.3015,55.3973 259.6245,54.2693 C256.8425,49.4563 251.0525,40.5083 251.0525,40.5083 C247.8945,42.9143 247.5185,46.9753 247.5185,50.7353 L247.5185,53.3673 C247.5185,54.7953 247.5935,57.2773 247.2925,58.1043 C247.1425,58.5553 245.6385,58.6303 244.2095,58.6303 L241.3525,58.6303 C240.2245,58.6303 239.6975,58.0293 238.9455,57.4273 C238.1935,56.7503 237.5925,55.9983 237.3665,54.9463 C237.2165,54.3443 237.2165,49.9083 237.2165,44.7193 C237.2165,36.8993 237.2915,27.1993 237.2915,25.7703 C237.2915,23.2883 237.0655,9.3773 236.9155,4.8663 C236.8405,3.9633 236.8405,2.7603 237.8175,2.6853 C238.6455,2.6103 240.6005,2.2343 242.1795,2.2343 C243.2325,2.2343 244.1345,2.3843 244.5105,2.8353 C245.8635,4.4143 247.4425,5.6933 247.5935,6.8213 C247.6685,7.2723 248.0445,13.8143 248.4955,16.5963 C249.9995,13.8893 250.9015,11.8593 252.0295,9.6033 C253.2325,7.3473 253.8345,5.3173 254.8875,3.2113 C255.0375,2.9103 255.1885,2.4593 255.4885,2.3093 C256.1655,1.8583 261.5045,1.6323 261.9555,2.0083 C262.4825,2.5353 264.8135,6.5203 264.5875,7.4223 C263.8355,10.5803 261.4295,14.8673 260.3015,17.2733 C259.0985,19.7543 258.0455,22.2363 257.0675,24.8683 C256.3155,26.8983 254.2855,30.0563 255.4885,32.2373 C257.4435,35.4703 258.9475,38.7033 260.8275,42.0123 C261.9555,44.1183 263.2335,46.5993 264.2865,48.6293 C265.0385,50.0583 265.6405,51.4873 266.4675,52.9153 C266.9935,53.8183 267.7455,54.7203 268.0465,55.6223 C268.5725,57.0513 265.2645,57.3523 264.2115,57.5773" id="Fill-13"></path>
            <path d="M296.4859,51.3371 C296.3399,51.0341 295.6019,50.2691 295.3729,50.4901 C295.2209,50.5631 295.0889,53.7941 295.3049,54.2491 C295.4519,54.4781 296.1769,55.9951 296.5569,55.7751 C296.7089,55.7031 296.5579,51.4891 296.4859,51.3371 M288.8859,6.7151 C289.0259,7.3191 290.1349,8.3921 290.2859,8.3951 C290.4359,8.3971 290.7969,5.0191 290.7259,4.7921 C290.7279,4.6421 289.5529,3.0421 289.4019,3.1141 C289.3259,3.1881 288.8149,6.4881 288.8859,6.7151 M287.0779,28.8731 C287.0749,29.0241 288.1819,30.1711 288.6289,30.4801 C288.6429,29.6531 288.9029,27.7021 288.8339,27.4001 C288.8389,27.0991 287.5909,25.3471 287.2869,25.5671 C287.1329,25.7151 286.9319,28.5691 287.0779,28.8731 M281.9719,30.0961 C281.8929,30.3201 283.4509,31.5511 283.6739,31.6301 C284.0479,31.7881 288.0809,31.6731 288.1599,31.4491 C288.3139,31.2261 287.2869,29.7791 286.7599,29.7701 C286.3859,29.6881 282.0509,29.8721 281.9719,30.0961 M282.7769,35.6011 C282.8029,34.0971 282.8279,32.7441 282.8309,32.5931 C282.6919,31.9141 281.8779,31.2231 281.5819,30.9171 C281.2029,31.0601 281.6619,47.5391 281.6619,47.5391 L282.9359,47.7871 C283.1979,45.7611 282.9019,41.2431 282.7869,39.2861 C282.7219,38.6831 282.7509,37.1051 282.7769,35.6011 M287.8259,7.1481 C287.6019,7.0681 279.8869,7.7981 279.5809,8.0931 C279.5799,8.1691 281.5849,9.6331 282.0329,9.7921 C282.8569,9.9571 289.2179,9.2031 289.4479,8.9811 C289.6009,8.8341 288.1979,7.3791 287.8259,7.1481 M280.8939,10.3731 C280.4529,9.8381 278.9669,8.7591 278.8889,8.9081 C278.6619,9.0551 280.1989,24.1231 280.4199,24.3531 C280.6409,24.5831 281.4709,24.4471 282.2239,24.3851 C282.2029,21.3761 281.1149,10.6771 280.8939,10.3731 M294.4729,54.5351 C294.0229,54.4521 287.4879,54.0351 285.5319,54.0751 C283.8019,54.0451 279.8189,53.8991 277.2629,53.8531 C275.9849,53.8311 275.0829,53.8151 275.0069,53.8881 C274.9279,54.0371 276.8469,56.1021 277.1459,56.1831 C277.7449,56.3431 294.9669,56.3491 295.4969,56.2081 C295.6479,56.1351 294.6979,54.6141 294.4729,54.5351 M274.9439,53.1351 C275.1689,53.2141 276.3719,53.2351 277.6509,53.1831 C282.9139,53.2771 292.9819,53.8321 294.1839,53.8531 C294.4099,53.8581 294.6289,50.0251 293.9519,50.0141 C292.5219,50.0641 282.0139,48.8991 281.1169,48.5821 C280.6689,48.4231 280.8359,47.5241 280.7659,47.1471 C280.3899,42.9281 280.8739,36.9201 280.5719,32.7041 C280.5069,32.1011 280.1799,29.3871 281.1619,29.1791 C282.0659,29.0451 286.0859,29.6831 286.1849,28.3311 C286.2009,27.4281 286.4659,25.1771 286.2409,25.1731 C285.2649,25.0801 280.6929,25.9371 280.0289,25.1731 C279.5149,24.4871 279.3329,22.0771 279.2729,21.1741 C279.2449,18.5411 277.5329,9.1091 277.9249,8.1391 C278.2439,7.1671 281.7799,7.0791 283.0609,6.9521 C284.9449,6.7601 287.6879,6.4681 287.9179,6.2471 C288.0699,6.0991 288.6449,3.4011 288.4229,3.1721 C288.2009,3.0181 282.8929,3.7151 280.2549,4.0441 C277.3159,4.3681 272.0499,4.4241 271.6609,5.1701 C271.4239,5.7671 272.2919,16.2361 272.9459,21.7381 C273.7409,27.7691 273.6379,33.5581 274.0539,39.7331 C274.2259,42.7441 274.3889,46.2811 274.5599,49.3681 C274.6779,51.1751 274.7229,52.9051 274.9439,53.1351 M292.6969,57.1361 C291.1189,57.1081 289.4649,57.0041 288.7889,56.9911 C286.0079,56.8671 284.9539,56.9981 283.0739,56.9651 C282.2469,56.9501 280.4399,57.0681 278.8609,57.0401 C277.5829,57.0181 276.4569,56.9221 275.9369,56.5371 C273.6359,54.7661 273.7549,52.3621 273.5779,49.6511 C273.2869,44.8331 272.8459,40.0121 272.6319,35.1191 C272.1289,25.4091 271.0189,15.9131 270.5899,6.2041 C270.5359,4.9991 270.5439,4.5481 270.9249,4.2541 C271.5349,3.8141 272.5099,3.9061 274.3189,3.7131 C276.2039,3.4451 289.0439,2.1301 289.0439,2.1301 C289.2689,2.1341 289.4949,2.1381 289.6429,2.2161 C290.3839,2.8311 290.9659,3.9691 291.3329,4.5021 C291.5519,4.8071 291.1859,8.4851 291.0189,9.4611 C290.8559,10.1341 282.0219,10.3931 281.9429,10.6171 C281.7859,10.9901 283.1769,21.5441 283.2229,23.1991 C283.2169,23.5001 283.2029,24.3271 283.3529,24.3301 C283.5779,24.4091 287.0069,24.4351 287.3069,24.4401 C287.6809,24.5221 288.0519,24.8291 288.2719,25.1341 C288.7139,25.6681 289.4429,26.9601 289.5859,27.4131 C289.6539,27.7911 289.6619,31.5511 289.2799,31.9201 C288.9719,32.2911 283.8879,32.3111 283.5839,32.5311 C283.3539,32.7531 283.5629,33.6591 283.5509,34.3361 C283.5579,38.1711 284.1389,43.5971 284.1459,47.4331 C284.2029,48.4861 292.8449,48.7911 294.0459,48.9621 C295.2449,49.2101 296.7319,50.1381 296.9519,50.5181 C297.2459,50.9001 297.1179,53.8301 297.3049,56.0151 C297.3609,57.0681 295.0279,57.1771 292.6969,57.1361" id="Fill-15"></path>
            <path d="M315.7467,13.9645 C313.6417,12.2355 310.3327,10.7315 310.1067,10.8815 C309.9567,10.9565 310.6337,21.9355 310.8587,30.0565 C311.0847,38.3275 311.0097,46.3735 311.0847,46.4485 C312.0617,46.8245 315.3707,44.8695 316.6487,42.6135 C320.4087,35.9965 319.6567,17.2735 315.7467,13.9645 M310.0317,10.1295 C314.2427,11.1825 317.0247,14.4155 316.9497,14.3405 C316.1227,12.6105 314.8447,11.3325 313.4157,10.3555 C311.0847,8.9265 308.6027,8.3245 308.4527,8.4755 C308.3777,8.5505 309.8067,10.0545 310.0317,10.1295 M308.0017,26.7475 C308.3027,36.5235 308.4527,46.6745 308.6787,46.9005 C308.9037,47.0505 309.8817,47.0505 309.9567,46.8245 C310.0317,46.3735 309.4307,10.8815 309.3547,10.6555 C309.2797,10.2795 307.8507,8.7005 307.7007,8.7765 C307.5507,8.7765 307.7757,17.5735 308.0017,26.7475 M307.3997,40.2825 C307.3247,30.8835 306.7237,8.3245 307.1747,7.7985 C307.8507,6.9715 311.5357,8.3245 312.9647,8.9265 C322.1387,13.2125 321.8377,38.1025 317.0247,43.8925 C315.1447,46.2235 312.5887,47.4265 309.7307,48.0275 C309.1297,48.1785 308.0017,48.4035 307.7757,47.8775 C307.3997,46.9005 307.3997,41.7865 307.3997,40.2825 M326.0487,41.9375 C326.0487,41.9375 325.5217,43.4415 325.2217,44.1175 C322.0627,50.8855 316.4237,52.8405 315.0697,53.3665 C313.3407,53.9685 311.6857,54.2695 309.9567,54.6455 C308.1517,55.0215 304.5427,55.0215 303.8657,55.0965 C303.7157,55.0965 304.5427,56.3745 304.9187,56.2995 C306.4227,56.2995 312.6637,55.6975 314.3177,55.2465 C318.6797,54.1945 321.1607,51.7125 322.9657,49.3815 C325.7477,45.9225 326.0487,41.9375 326.0487,41.9375 M303.5647,53.8185 C303.8657,53.9685 307.3997,53.8935 308.6027,53.8185 C313.0397,53.4425 321.1607,50.4345 324.3937,43.3655 C327.7027,35.9965 325.5977,22.8375 323.2667,17.3485 C321.3867,13.0625 319.6567,9.0015 313.8667,5.6175 C309.5807,3.1365 303.1137,2.6855 302.8127,2.9855 C302.5877,3.3615 302.8887,18.1005 302.8887,23.8905 C302.9637,30.0565 303.0387,36.1475 303.0387,42.3135 C303.0387,45.2455 303.4147,53.5925 303.5647,53.8185 M323.2667,50.7355 C320.4087,54.0435 316.7247,57.1265 304.9937,57.1265 C304.0917,57.1265 303.2647,55.5475 302.6627,54.4945 C302.4367,54.1185 302.2117,53.5175 302.2117,52.7655 C301.9857,50.6595 301.9857,47.7275 301.9857,46.1485 C301.9857,42.4635 301.5347,5.6935 301.6097,3.8135 C301.6097,2.3095 301.8357,2.0085 302.2117,1.9335 C304.9187,1.8585 307.4757,2.3095 309.5807,2.8355 C321.6117,5.6935 327.3267,17.4235 327.3267,35.0945 C327.3267,38.2525 327.0257,46.4485 323.2667,50.7355" id="Fill-17"></path>
        </g>
    </g>
</svg>